<?xml version="1.0" standalone="no"?><!DOCTYPE svg PUBLIC "-//W3C//DTD SVG 1.1//EN" "http://www.w3.org/Graphics/SVG/1.1/DTD/svg11.dtd"><svg t="1585543009454" class="icon" viewBox="0 0 1024 1024" version="1.1" xmlns="http://www.w3.org/2000/svg" p-id="10529" xmlns:xlink="http://www.w3.org/1999/xlink" width="200" height="200"><defs><style type="text/css"></style></defs><path d="M37.35868 1023.427453c-21.899916 0-37.35868-15.458764-37.35868-37.35868V37.501817C0 15.601901 15.458764 0.143137 37.35868 0.143137s37.35868 15.458764 37.358681 37.35868v911.637685h911.637685c21.899916 0 37.35868 15.458764 37.358681 37.358681s-15.458764 37.35868-37.358681 37.35868H37.215544v-0.42941z m888.449539-509.423539c3.721554-20.611686 11.3078-67.989936-0.715683-85.882024-8.588202-12.739167-25.19206-16.460721-39.935142-16.460721-21.470506 0-37.931227 16.031311-37.931227 36.92927 0 71.854627-32.921443 238.465753-127.677942 238.465753-65.413475 0-108.21135-105.348616-149.148449-206.546267-4.007828-9.447023-8.015656-18.894045-11.450936-28.484205-5.009785-11.450937-9.447023-22.901873-14.456808-34.495946-46.94884-113.793682-87.885938-211.985463-176.630696-211.985463-111.217221 0-179.636567 173.624825-204.112943 515.864691l-0.429411 6.441152v0.42941c0 24.476377 17.033268 41.366508 41.366509 41.366508 24.476377 0 41.366508-17.033268 41.366508-41.366508 7.013699-199.532569 62.407604-440.574783 121.23679-440.574783 32.921443 0 67.846799 77.293822 101.770199 152.726866 6.441152 14.456807 13.02544 29.486162 19.896002 43.942969 52.388035 136.695555 111.217221 291.855745 236.03243 291.855745 162.603299 0 187.365949-186.507129 200.820799-262.512721z" p-id="10530" fill="#ffffff"></path></svg>