<svg id="设置" xmlns="http://www.w3.org/2000/svg" width="12" height="12" viewBox="0 0 12 12">
  <defs>
    <style>
      .cls-1 {
        fill: #fff;
      }
    </style>
  </defs>
  <path id="路径_71" data-name="路径 71" class="cls-1" d="M354.616,356.961a2.316,2.316,0,1,1,2.315-2.315A2.318,2.318,0,0,1,354.616,356.961Zm0-3.852a1.537,1.537,0,1,0,1.537,1.537A1.538,1.538,0,0,0,354.616,353.109Z" transform="translate(-348.616 -348.645)"/>
  <path id="路径_72" data-name="路径 72" class="cls-1" d="M83.865,109.5a.81.81,0,0,1-.708-.429,1.341,1.341,0,0,0-1.167-.709h-.067a1.3,1.3,0,0,0-1.143.679.851.851,0,0,1-.516.416.807.807,0,0,1-.645-.089l-1.342-.815a.853.853,0,0,1-.383-.525.9.9,0,0,1,.082-.656,1.512,1.512,0,0,0,0-1.441l-.009-.017a1.355,1.355,0,0,0-1.181-.718.85.85,0,0,1-.827-.87v-1.61a.888.888,0,0,1,.864-.909,1.292,1.292,0,0,0,1.125-.684,1.618,1.618,0,0,0,0-1.541l-.042-.077a.74.74,0,0,1,.25-.982l1.456-.884a.836.836,0,0,1,1.171.33,1.291,1.291,0,0,0,1.132.674h.065a1.342,1.342,0,0,0,1.176-.708.819.819,0,0,1,.5-.4.772.772,0,0,1,.618.086l1.379.838a.846.846,0,0,1,.379.52.89.89,0,0,1-.081.65,1.5,1.5,0,0,0,.023,1.434l.015.027a1.343,1.343,0,0,0,1.16.722.837.837,0,0,1,.814.857v1.677a.835.835,0,0,1-.813.855,1.345,1.345,0,0,0-1.162.726l-.013.024a1.5,1.5,0,0,0-.023,1.435.881.881,0,0,1-.3,1.167l-1.379.838A.781.781,0,0,1,83.865,109.5Zm-1.875-1.916a2.075,2.075,0,0,1,1.807,1.1.076.076,0,0,0,.047.038.072.072,0,0,0,.059-.008l1.379-.838a.08.08,0,0,0,.027-.105,2.312,2.312,0,0,1,.024-2.215l.332.174-.32-.194a2.08,2.08,0,0,1,1.8-1.115.076.076,0,0,0,.073-.077v-1.677a.077.077,0,0,0-.075-.079,2.079,2.079,0,0,1-1.8-1.114l-.012-.021a2.311,2.311,0,0,1-.025-2.214.082.082,0,0,0,.008-.06.077.077,0,0,0-.035-.048L83.9,98.292a.071.071,0,0,0-.057-.008.073.073,0,0,0-.045.037,2.076,2.076,0,0,1-1.809,1.1h-.052a2.025,2.025,0,0,1-1.795-1.062.117.117,0,0,0-.072-.058.113.113,0,0,0-.089.012l-1.407.855.014.025a2.432,2.432,0,0,1,0,2.319,2.027,2.027,0,0,1-1.766,1.074.128.128,0,0,0-.125.131v1.61a.09.09,0,0,0,.087.092,2.09,2.09,0,0,1,1.821,1.108l.009.017a2.328,2.328,0,0,1,0,2.218.089.089,0,0,0-.008.066.084.084,0,0,0,.038.052l1.342.815a.108.108,0,0,0,.151-.043,2.036,2.036,0,0,1,1.782-1.067h.069Z" transform="translate(-75.96 -97.503)"/>
</svg>
