<svg xmlns="http://www.w3.org/2000/svg" width="12" height="12" viewBox="0 0 12 12">
  <defs>
    <style>
      .cls-1 {
        fill: #fff;
      }
    </style>
  </defs>
  <path id="_008屏幕放大" data-name="008屏幕放大" class="cls-1" d="M68.249,69.767h-9a1.5,1.5,0,0,1-1.5-1.5v-9a1.5,1.5,0,0,1,1.5-1.5h9a1.5,1.5,0,0,1,1.5,1.5v9A1.5,1.5,0,0,1,68.249,69.767Zm.75-10.5a.75.75,0,0,0-.75-.75h-9a.75.75,0,0,0-.75.75v9a.75.75,0,0,0,.75.75h9a.75.75,0,0,0,.75-.75Zm-1.125,4.125a.375.375,0,0,1-.375-.375l.012-2.465L64.965,63.1l-.53-.53,2.55-2.55H64.5a.375.375,0,0,1,0-.75h3.364a.373.373,0,0,1,.267.113.335.335,0,0,1,.118.262v3.375A.375.375,0,0,1,67.874,63.392ZM63,68.267H59.634a.373.373,0,0,1-.267-.113.334.334,0,0,1-.118-.262V64.517a.375.375,0,0,1,.75,0l-.012,2.466,2.545-2.546.531.53-2.55,2.55H63a.375.375,0,0,1,0,.75Z" transform="translate(-57.749 -57.767)"/>
</svg>
