<?xml version="1.0" encoding="utf-8"?>
<!-- Generator: Adobe Illustrator 16.0.0, SVG Export Plug-In . SVG Version: 6.00 Build 0)  -->
<!DOCTYPE svg PUBLIC "-//W3C//DTD SVG 1.1//EN" "http://www.w3.org/Graphics/SVG/1.1/DTD/svg11.dtd">
<svg version="1.1" id="图层_1" xmlns="http://www.w3.org/2000/svg" xmlns:xlink="http://www.w3.org/1999/xlink" x="0px" y="0px"
	 width="330.15px" height="70.867px" viewBox="0 0 330.15 70.867" enable-background="new 0 0 330.15 70.867" xml:space="preserve">
<path fill="#0F55E6" d="M26.676,59.794l-3.577-2.08V30.566l31.113-17.969L44.45,6.968l-21.352,12.34l0,0l-9.761,5.629l0,0l0,0
	v11.258l0,0v15.89l-3.577-2.08V23.024L41.012,4.972l-7.569-4.354c-1.276-0.776-2.912-0.832-4.299-0.055L2.495,15.953l0,0l0,0v0.027
	l0,0l0,0H2.468l0,0l0,0l0,0l0,0l0,0l0,0l0,0l0,0H2.441l0,0l0,0l0,0l0,0l0,0l0,0l0,0l0,0l0,0l0,0l0,0l-0.028,0.028l0,0l0,0l0,0l0,0
	l0,0l0,0l0,0l0,0l0,0l0,0l0,0l0,0l0,0H2.385l0,0l0,0l0,0l0,0l0,0l0,0l0,0l0,0l0,0l0,0l0,0v0.028l0,0H2.357l0,0l0,0l0,0l0,0l0,0l0,0
	l0,0l0,0l0,0l0,0H2.329l0,0l0,0l0,0l0,0l0,0l0,0l0,0l0,0l0,0l0,0v0.028l0,0H2.302l0,0l0,0l0,0l0,0l0,0l0,0l0,0l0,0l0,0l0,0l0,0l0,0
	l0,0H2.274l0,0l0,0l0,0l0,0l0,0l0,0l0,0l0,0l0,0l0,0v0.028l0,0l0,0l0,0H2.246l0,0l0,0l0,0l0,0l0,0l0,0l0,0l0,0l0,0l0,0l0,0
	l-0.194,0.111l0,0c-0.027,0.027-0.056,0.027-0.111,0.055l0,0l-0.055,0.056l0,0L1.83,16.341l0,0l-0.056,0.027l0,0l-0.056,0.056l0,0
	l-0.056,0.028l0,0l-0.027,0.055H1.609L1.58,16.535H1.553l-0.028,0.056l0,0L1.47,16.618l0,0l-0.056,0.056l0,0l-0.027,0.028
	l-0.028,0.028l-0.027,0.027l0,0l-0.056,0.056l0,0L1.22,16.84v0.028l-0.027,0.027H1.164l-0.027,0.056l0,0L1.11,17.007H1.081
	l-0.027,0.027v0.028L0.998,17.09v0.028l-0.027,0.028H0.943l-0.027,0.055l0,0l-0.028,0.056H0.86l-0.027,0.055l0,0l-0.028,0.056l0,0
	l-0.027,0.028l-0.028,0.027L0.721,17.45v0.028l-0.027,0.028v0.028l-0.028,0.027l-0.027,0.028L0.61,17.617v0.028L0.582,17.7l0,0
	l-0.027,0.056l0,0l-0.028,0.055l-0.027,0.028l-0.028,0.056v0.028l-0.027,0.027v0.028l-0.027,0.028l-0.028,0.028v0.028
	c-0.027,0.083-0.083,0.166-0.11,0.25v0.028l-0.028,0.055v0.028v0.028l-0.027,0.028v0.027l0,0l-0.056,0.139v0.028v0.028l-0.027,0.028
	v0.055v0.028l-0.028,0.028v0.027v0.028v0.028l-0.027,0.056v0.055v0.028l-0.027,0.056v0.027v0.028v0.028v0.056L0.028,19.28v0.028
	v0.028v0.056v0.027v0.028v0.028L0,19.53v0.027v0.028v0.028v0.056v0.027v0.056l0,0l0,0v0.055v8.846l0,0v6.793v15.584l0,0h0.027
	c0,1.471,0.749,2.912,2.136,3.688l19.383,11.202l1.553,0.889l3.577,2.079l2.412,1.386c1.276,0.75,2.912,0.832,4.299,0.028
	l5.768-3.327l20.881-12.063c0.11-0.027,0.193-0.084,0.277-0.139l0.166-0.084c1.22-0.748,2.052-2.079,2.08-3.604v-8.846
	L36.437,57.326v-3.993l26.122-15.085v-2.801v-8.458L36.437,42.074v-3.992l26.122-15.058v-3.161h-0.028
	c0-1.47-0.776-2.912-2.135-3.688l-2.745-1.581L36.437,26.851v-0.027l-9.761,5.629l0,0v0.028v11.23v3.993v11.259V59.794z"/>
<path fill="#FFFFFF" d="M213.27,16.119c2.606,0,5.075,0.527,7.349,1.47c2.357,0.971,4.492,2.413,6.267,4.215
	c1.803,1.775,3.217,3.91,4.215,6.267c0.943,2.274,1.47,4.77,1.47,7.376c0,2.607-0.526,5.074-1.47,7.377
	c-0.998,2.356-2.412,4.492-4.215,6.266c-1.774,1.775-3.909,3.217-6.267,4.215c-2.273,0.943-4.742,1.471-7.349,1.471h-21.962V16.119
	H213.27z M213.27,22.636h-15.445v25.623h15.445c1.72,0,3.383-0.36,4.881-0.971c1.553-0.665,2.967-1.608,4.132-2.801
	c1.192-1.192,2.135-2.606,2.801-4.159c0.609-1.498,0.97-3.162,0.97-4.881c0-1.747-0.36-3.383-0.97-4.88
	c-0.666-1.581-1.608-2.995-2.801-4.159c-1.165-1.192-2.579-2.163-4.132-2.801C216.653,22.969,214.99,22.636,213.27,22.636z
	 M295.656,16.452l12.7,14.114l13.032-14.447h8.763l-17.414,19.328l17.414,19.328h-8.763L308.356,40.3l-13.033,14.475h-8.735
	l17.387-19.328l-17.387-19.328h8.735L295.656,16.452z M151.488,32.175h21.686v6.516h-21.686v9.567h32.14v6.517h-38.655V16.119
	h38.655v6.517h-32.14V32.175z M246.768,32.175h21.685v6.516h-21.685v9.567h32.139v6.517h-38.655V16.119h38.655v6.517h-32.139V32.175
	z M83.577,16.119h5.436l9.067,24.875l9.04-24.875h5.13l9.04,24.875l9.067-24.875h6.933l-14.059,38.656h-3.854l-9.706-26.648
	l-9.678,26.648h-3.854L82.08,16.119H83.577z"/>
</svg>
